{
	"asset":{
		"generator":"Khronos glTF Blender I/O v4.3.47",
		"version":"2.0"
	},
	"scene":0,
	"scenes":[
		{
			"name":"Scene",
			"nodes":[
				0
			]
		}
	],
	"nodes":[
		{
			"mesh":0,
			"name":"model",
			"rotation":[
				0.70710688829422,
				0,
				0,
				0.7071066498756409
			]
		}
	],
	"animations":[
		{
			"channels":[
				{
					"sampler":0,
					"target":{
						"node":0,
						"path":"translation"
					}
				}
			],
			"name":"modelAction",
			"samplers":[
				{
					"input":4,
					"interpolation":"LINEAR",
					"output":5
				}
			]
		}
	],
	"meshes":[
		{
			"name":"model",
			"primitives":[
				{
					"attributes":{
						"POSITION":0,
						"NORMAL":1,
						"TEXCOORD_0":2
					},
					"indices":3
				}
			]
		}
	],
	"accessors":[
		{
			"bufferView":0,
			"componentType":5126,
			"count":78025,
			"max":[
				0.7784850001335144,
				0.15960299968719482,
				0
			],
			"min":[
				-0.7785789966583252,
				-0.1582770049571991,
				-1.5
			],
			"type":"VEC3"
		},
		{
			"bufferView":1,
			"componentType":5126,
			"count":78025,
			"type":"VEC3"
		},
		{
			"bufferView":2,
			"componentType":5126,
			"count":78025,
			"type":"VEC2"
		},
		{
			"bufferView":3,
			"componentType":5125,
			"count":300000,
			"type":"SCALAR"
		},
		{
			"bufferView":4,
			"componentType":5126,
			"count":13,
			"max":[
				0.5416666666666666
			],
			"min":[
				0.041666666666666664
			],
			"type":"SCALAR"
		},
		{
			"bufferView":5,
			"componentType":5126,
			"count":13,
			"type":"VEC3"
		}
	],
	"bufferViews":[
		{
			"buffer":0,
			"byteLength":936300,
			"byteOffset":0,
			"target":34962
		},
		{
			"buffer":0,
			"byteLength":936300,
			"byteOffset":936300,
			"target":34962
		},
		{
			"buffer":0,
			"byteLength":624200,
			"byteOffset":1872600,
			"target":34962
		},
		{
			"buffer":0,
			"byteLength":1200000,
			"byteOffset":2496800,
			"target":34963
		},
		{
			"buffer":0,
			"byteLength":52,
			"byteOffset":3696800
		},
		{
			"buffer":0,
			"byteLength":156,
			"byteOffset":3696852
		}
	],
	"buffers":[
		{
			"byteLength":3697008,
			"uri":"sk_burgler.bin"
		}
	]
}
