{
	"asset":{
		"generator":"Khronos glTF Blender I/O v4.4.56",
		"version":"2.0"
	},
	"scene":0,
	"scenes":[
		{
			"name":"Scene",
			"nodes":[
				0,
				17
			]
		}
	],
	"nodes":[
		{
			"name":"Empty.001",
			"rotation":[
				0.5,
				0.5,
				-0.5,
				0.5
			],
			"translation":[
				0,
				0.38288548588752747,
				-0.045235633850097656
			]
		},
		{
			"name":"Tail01.001",
			"rotation":[
				-5.233208071331319e-07,
				1.6718958306682907e-07,
				0.03677494451403618,
				0.9993235468864441
			],
			"translation":[
				3.352762689701194e-08,
				0.10486257076263428,
				4.973799150320701e-14
			]
		},
		{
			"children":[
				1
			],
			"name":"Tail01",
			"rotation":[
				0.011441266164183617,
				-0.0021287952549755573,
				0.34295183420181274,
				0.9392809271812439
			],
			"scale":[
				1.0000001192092896,
				0.9999998807907104,
				1
			],
			"translation":[
				-1.503887325782216e-08,
				0.14761778712272644,
				1.2564775886403368e-09
			]
		},
		{
			"children":[
				2
			],
			"name":"Tail02",
			"rotation":[
				0.99715256690979,
				-0.07370913028717041,
				-0.002576872706413269,
				0.015717849135398865
			],
			"scale":[
				1.0000078678131104,
				1.0000001192092896,
				1.0000003576278687
			],
			"translation":[
				-0.004754667170345783,
				-0.0023574787192046642,
				2.2130545403342694e-05
			]
		},
		{
			"name":"Spine04",
			"rotation":[
				-7.635629231117491e-07,
				1.6430314531135082e-07,
				0.014392281882464886,
				0.9998964071273804
			],
			"scale":[
				1,
				0.9999999403953552,
				1
			],
			"translation":[
				-1.2340080957073951e-08,
				0.10272305458784103,
				0
			]
		},
		{
			"children":[
				4
			],
			"name":"Spine03",
			"rotation":[
				-0.005368896760046482,
				0.0002603203756734729,
				-0.02242398075759411,
				0.999734103679657
			],
			"scale":[
				0.9999999403953552,
				0.9999999403953552,
				0.9999999403953552
			],
			"translation":[
				1.1798995114276067e-09,
				0.1686316728591919,
				9.593392746864993e-11
			]
		},
		{
			"name":"f_calf_l",
			"rotation":[
				-0.004551549907773733,
				5.996857055379223e-08,
				0.006640458479523659,
				0.9999675750732422
			],
			"scale":[
				0.9999998807907104,
				1.0000001192092896,
				0.9999999403953552
			],
			"translation":[
				6.461050361394882e-09,
				0.13236075639724731,
				1.4639226719737053e-08
			]
		},
		{
			"children":[
				6
			],
			"name":"f_thigh_l",
			"rotation":[
				-0.33931541442871094,
				-0.3265550434589386,
				-0.6407564878463745,
				0.6063480973243713
			],
			"scale":[
				0.9999999403953552,
				0.9999998211860657,
				0.9999999403953552
			],
			"translation":[
				0.1406324952840805,
				0.16367027163505554,
				-0.22898194193840027
			]
		},
		{
			"name":"f_calf_r",
			"rotation":[
				-0.004551518242806196,
				5.996493257498514e-08,
				0.006640414707362652,
				0.9999675750732422
			],
			"scale":[
				0.9999998807907104,
				1,
				0.9999999403953552
			],
			"translation":[
				-2.9685907065868378e-09,
				0.1323607712984085,
				3.0209776014089584e-08
			]
		},
		{
			"children":[
				8
			],
			"name":"f_thigh_r",
			"rotation":[
				-0.33931541442871094,
				-0.3265549838542938,
				-0.6407564878463745,
				0.6063480973243713
			],
			"scale":[
				0.9999999403953552,
				0.9999998211860657,
				0.9999999403953552
			],
			"translation":[
				0.14098238945007324,
				0.16860240697860718,
				0.2308359444141388
			]
		},
		{
			"children":[
				5,
				7,
				9
			],
			"name":"Spine02",
			"rotation":[
				0.0009595828596502542,
				-7.033679139567539e-06,
				0.024087833240628242,
				0.9997093677520752
			],
			"translation":[
				-1.134452531914576e-08,
				0.17895948886871338,
				-4.3655745685100555e-11
			]
		},
		{
			"name":"b_calf_l",
			"rotation":[
				-0.0019318026024848223,
				-5.2227075997279826e-08,
				0.0012519932352006435,
				0.9999973773956299
			],
			"scale":[
				0.9999999403953552,
				1.0000001192092896,
				0.9999999403953552
			],
			"translation":[
				-1.2449993036511842e-08,
				0.13140346109867096,
				2.8057138834469697e-09
			]
		},
		{
			"children":[
				11
			],
			"name":"b_thigh_l",
			"rotation":[
				-0.20392517745494843,
				-0.20308108627796173,
				-0.6782910227775574,
				0.6760872602462769
			],
			"scale":[
				0.9999999403953552,
				1,
				1
			],
			"translation":[
				0.132146418094635,
				-0.0024275504983961582,
				-0.22512342035770416
			]
		},
		{
			"name":"b_calf_r",
			"rotation":[
				-0.0019318026024848223,
				-5.222730337095527e-08,
				0.0012519932352006435,
				0.9999973773956299
			],
			"scale":[
				0.9999999403953552,
				1.0000001192092896,
				0.9999999403953552
			],
			"translation":[
				-1.2429041795769535e-08,
				0.13140344619750977,
				1.769329749379267e-08
			]
		},
		{
			"children":[
				13
			],
			"name":"b_thigh_r",
			"rotation":[
				-0.20392517745494843,
				-0.20308108627796173,
				-0.6782910227775574,
				0.6760872602462769
			],
			"scale":[
				0.9999999403953552,
				1,
				1
			],
			"translation":[
				0.13227136433124542,
				0.0015751419123262167,
				0.22811049222946167
			]
		},
		{
			"children":[
				3,
				10,
				12,
				14
			],
			"name":"Spine01",
			"rotation":[
				0.003029692219570279,
				-0.0032142172567546368,
				-0.705922544002533,
				0.708275318145752
			],
			"scale":[
				1.0000001192092896,
				1.0000001192092896,
				0.9999999403953552
			],
			"translation":[
				-0.2729836404323578,
				0.34318220615386963,
				-0.0033885950688272715
			]
		},
		{
			"children":[
				15
			],
			"name":"Armature.002",
			"rotation":[
				0,
				-0.7071067094802856,
				0,
				0.7071068286895752
			],
			"translation":[
				0,
				0.027660567313432693,
				0
			]
		},
		{
			"children":[
				16
			],
			"mesh":0,
			"name":"Plane",
			"skin":0
		}
	],
	"animations":[
		{
			"channels":[
				{
					"sampler":0,
					"target":{
						"node":15,
						"path":"translation"
					}
				},
				{
					"sampler":1,
					"target":{
						"node":15,
						"path":"rotation"
					}
				},
				{
					"sampler":2,
					"target":{
						"node":15,
						"path":"scale"
					}
				},
				{
					"sampler":3,
					"target":{
						"node":3,
						"path":"translation"
					}
				},
				{
					"sampler":4,
					"target":{
						"node":3,
						"path":"rotation"
					}
				},
				{
					"sampler":5,
					"target":{
						"node":3,
						"path":"scale"
					}
				},
				{
					"sampler":6,
					"target":{
						"node":2,
						"path":"translation"
					}
				},
				{
					"sampler":7,
					"target":{
						"node":2,
						"path":"rotation"
					}
				},
				{
					"sampler":8,
					"target":{
						"node":2,
						"path":"scale"
					}
				},
				{
					"sampler":9,
					"target":{
						"node":1,
						"path":"translation"
					}
				},
				{
					"sampler":10,
					"target":{
						"node":1,
						"path":"rotation"
					}
				},
				{
					"sampler":11,
					"target":{
						"node":1,
						"path":"scale"
					}
				},
				{
					"sampler":12,
					"target":{
						"node":10,
						"path":"translation"
					}
				},
				{
					"sampler":13,
					"target":{
						"node":10,
						"path":"rotation"
					}
				},
				{
					"sampler":14,
					"target":{
						"node":10,
						"path":"scale"
					}
				},
				{
					"sampler":15,
					"target":{
						"node":5,
						"path":"translation"
					}
				},
				{
					"sampler":16,
					"target":{
						"node":5,
						"path":"rotation"
					}
				},
				{
					"sampler":17,
					"target":{
						"node":5,
						"path":"scale"
					}
				},
				{
					"sampler":18,
					"target":{
						"node":4,
						"path":"translation"
					}
				},
				{
					"sampler":19,
					"target":{
						"node":4,
						"path":"rotation"
					}
				},
				{
					"sampler":20,
					"target":{
						"node":4,
						"path":"scale"
					}
				},
				{
					"sampler":21,
					"target":{
						"node":7,
						"path":"translation"
					}
				},
				{
					"sampler":22,
					"target":{
						"node":7,
						"path":"rotation"
					}
				},
				{
					"sampler":23,
					"target":{
						"node":7,
						"path":"scale"
					}
				},
				{
					"sampler":24,
					"target":{
						"node":6,
						"path":"translation"
					}
				},
				{
					"sampler":25,
					"target":{
						"node":6,
						"path":"rotation"
					}
				},
				{
					"sampler":26,
					"target":{
						"node":6,
						"path":"scale"
					}
				},
				{
					"sampler":27,
					"target":{
						"node":9,
						"path":"translation"
					}
				},
				{
					"sampler":28,
					"target":{
						"node":9,
						"path":"rotation"
					}
				},
				{
					"sampler":29,
					"target":{
						"node":9,
						"path":"scale"
					}
				},
				{
					"sampler":30,
					"target":{
						"node":8,
						"path":"translation"
					}
				},
				{
					"sampler":31,
					"target":{
						"node":8,
						"path":"rotation"
					}
				},
				{
					"sampler":32,
					"target":{
						"node":8,
						"path":"scale"
					}
				},
				{
					"sampler":33,
					"target":{
						"node":12,
						"path":"translation"
					}
				},
				{
					"sampler":34,
					"target":{
						"node":12,
						"path":"rotation"
					}
				},
				{
					"sampler":35,
					"target":{
						"node":12,
						"path":"scale"
					}
				},
				{
					"sampler":36,
					"target":{
						"node":11,
						"path":"translation"
					}
				},
				{
					"sampler":37,
					"target":{
						"node":11,
						"path":"rotation"
					}
				},
				{
					"sampler":38,
					"target":{
						"node":11,
						"path":"scale"
					}
				},
				{
					"sampler":39,
					"target":{
						"node":14,
						"path":"translation"
					}
				},
				{
					"sampler":40,
					"target":{
						"node":14,
						"path":"rotation"
					}
				},
				{
					"sampler":41,
					"target":{
						"node":14,
						"path":"scale"
					}
				},
				{
					"sampler":42,
					"target":{
						"node":13,
						"path":"translation"
					}
				},
				{
					"sampler":43,
					"target":{
						"node":13,
						"path":"rotation"
					}
				},
				{
					"sampler":44,
					"target":{
						"node":13,
						"path":"scale"
					}
				}
			],
			"name":"Armature.002Action",
			"samplers":[
				{
					"input":15,
					"interpolation":"STEP",
					"output":16
				},
				{
					"input":15,
					"interpolation":"STEP",
					"output":17
				},
				{
					"input":15,
					"interpolation":"STEP",
					"output":18
				},
				{
					"input":15,
					"interpolation":"STEP",
					"output":19
				},
				{
					"input":20,
					"interpolation":"LINEAR",
					"output":21
				},
				{
					"input":15,
					"interpolation":"STEP",
					"output":22
				},
				{
					"input":15,
					"interpolation":"STEP",
					"output":23
				},
				{
					"input":20,
					"interpolation":"LINEAR",
					"output":24
				},
				{
					"input":15,
					"interpolation":"STEP",
					"output":25
				},
				{
					"input":15,
					"interpolation":"STEP",
					"output":26
				},
				{
					"input":20,
					"interpolation":"LINEAR",
					"output":27
				},
				{
					"input":15,
					"interpolation":"STEP",
					"output":28
				},
				{
					"input":15,
					"interpolation":"STEP",
					"output":29
				},
				{
					"input":15,
					"interpolation":"STEP",
					"output":30
				},
				{
					"input":15,
					"interpolation":"STEP",
					"output":31
				},
				{
					"input":15,
					"interpolation":"STEP",
					"output":32
				},
				{
					"input":15,
					"interpolation":"STEP",
					"output":33
				},
				{
					"input":15,
					"interpolation":"STEP",
					"output":34
				},
				{
					"input":15,
					"interpolation":"STEP",
					"output":35
				},
				{
					"input":20,
					"interpolation":"LINEAR",
					"output":36
				},
				{
					"input":15,
					"interpolation":"STEP",
					"output":37
				},
				{
					"input":15,
					"interpolation":"STEP",
					"output":38
				},
				{
					"input":15,
					"interpolation":"STEP",
					"output":39
				},
				{
					"input":15,
					"interpolation":"STEP",
					"output":40
				},
				{
					"input":15,
					"interpolation":"STEP",
					"output":41
				},
				{
					"input":15,
					"interpolation":"STEP",
					"output":42
				},
				{
					"input":15,
					"interpolation":"STEP",
					"output":43
				},
				{
					"input":15,
					"interpolation":"STEP",
					"output":44
				},
				{
					"input":15,
					"interpolation":"STEP",
					"output":45
				},
				{
					"input":15,
					"interpolation":"STEP",
					"output":46
				},
				{
					"input":15,
					"interpolation":"STEP",
					"output":47
				},
				{
					"input":15,
					"interpolation":"STEP",
					"output":48
				},
				{
					"input":15,
					"interpolation":"STEP",
					"output":49
				},
				{
					"input":15,
					"interpolation":"STEP",
					"output":50
				},
				{
					"input":15,
					"interpolation":"STEP",
					"output":51
				},
				{
					"input":15,
					"interpolation":"STEP",
					"output":52
				},
				{
					"input":15,
					"interpolation":"STEP",
					"output":53
				},
				{
					"input":15,
					"interpolation":"STEP",
					"output":54
				},
				{
					"input":15,
					"interpolation":"STEP",
					"output":55
				},
				{
					"input":15,
					"interpolation":"STEP",
					"output":56
				},
				{
					"input":15,
					"interpolation":"STEP",
					"output":57
				},
				{
					"input":15,
					"interpolation":"STEP",
					"output":58
				},
				{
					"input":15,
					"interpolation":"STEP",
					"output":59
				},
				{
					"input":15,
					"interpolation":"STEP",
					"output":60
				},
				{
					"input":15,
					"interpolation":"STEP",
					"output":61
				}
			]
		}
	],
	"materials":[
		{
			"doubleSided":true,
			"name":"Material.001",
			"pbrMetallicRoughness":{
				"baseColorFactor":[
					0.4924653172492981,
					0.8014032244682312,
					0.30490943789482117,
					1
				],
				"metallicFactor":0,
				"roughnessFactor":0.5
			}
		}
	],
	"meshes":[
		{
			"name":"Plane",
			"primitives":[
				{
					"attributes":{
						"POSITION":0,
						"NORMAL":1,
						"TEXCOORD_0":2,
						"COLOR_0":3,
						"JOINTS_0":4,
						"WEIGHTS_0":5
					},
					"indices":6,
					"material":0
				},
				{
					"attributes":{
						"POSITION":7,
						"NORMAL":8,
						"TEXCOORD_0":9,
						"COLOR_0":10,
						"JOINTS_0":11,
						"WEIGHTS_0":12
					},
					"indices":13
				}
			]
		}
	],
	"skins":[
		{
			"inverseBindMatrices":14,
			"joints":[
				15,
				3,
				2,
				1,
				10,
				5,
				4,
				7,
				6,
				9,
				8,
				12,
				11,
				14,
				13
			],
			"name":"Armature.002"
		}
	],
	"accessors":[
		{
			"bufferView":0,
			"componentType":5126,
			"count":2556,
			"max":[
				0.35721227526664734,
				0.6971253752708435,
				0.4818786084651947
			],
			"min":[
				-0.35647818446159363,
				-0.010005488991737366,
				-0.5640855431556702
			],
			"type":"VEC3"
		},
		{
			"bufferView":1,
			"componentType":5126,
			"count":2556,
			"type":"VEC3"
		},
		{
			"bufferView":2,
			"componentType":5126,
			"count":2556,
			"type":"VEC2"
		},
		{
			"bufferView":3,
			"componentType":5123,
			"count":2556,
			"normalized":true,
			"type":"VEC4"
		},
		{
			"bufferView":4,
			"componentType":5121,
			"count":2556,
			"type":"VEC4"
		},
		{
			"bufferView":5,
			"componentType":5126,
			"count":2556,
			"type":"VEC4"
		},
		{
			"bufferView":6,
			"componentType":5123,
			"count":13620,
			"type":"SCALAR"
		},
		{
			"bufferView":7,
			"componentType":5126,
			"count":1118,
			"max":[
				0.22240664064884186,
				0.38788601756095886,
				0.484102338552475
			],
			"min":[
				-0.22510279715061188,
				0.20791871845722198,
				0.313506156206131
			],
			"type":"VEC3"
		},
		{
			"bufferView":8,
			"componentType":5126,
			"count":1118,
			"type":"VEC3"
		},
		{
			"bufferView":9,
			"componentType":5126,
			"count":1118,
			"type":"VEC2"
		},
		{
			"bufferView":10,
			"componentType":5123,
			"count":1118,
			"normalized":true,
			"type":"VEC4"
		},
		{
			"bufferView":11,
			"componentType":5121,
			"count":1118,
			"type":"VEC4"
		},
		{
			"bufferView":12,
			"componentType":5126,
			"count":1118,
			"type":"VEC4"
		},
		{
			"bufferView":13,
			"componentType":5123,
			"count":5760,
			"type":"SCALAR"
		},
		{
			"bufferView":14,
			"componentType":5126,
			"count":15,
			"type":"MAT4"
		},
		{
			"bufferView":15,
			"componentType":5126,
			"count":2,
			"max":[
				1.3333333333333333
			],
			"min":[
				0
			],
			"type":"SCALAR"
		},
		{
			"bufferView":16,
			"componentType":5126,
			"count":2,
			"type":"VEC3"
		},
		{
			"bufferView":17,
			"componentType":5126,
			"count":2,
			"type":"VEC4"
		},
		{
			"bufferView":18,
			"componentType":5126,
			"count":2,
			"type":"VEC3"
		},
		{
			"bufferView":19,
			"componentType":5126,
			"count":2,
			"type":"VEC3"
		},
		{
			"bufferView":20,
			"componentType":5126,
			"count":41,
			"max":[
				1.3333333333333333
			],
			"min":[
				0
			],
			"type":"SCALAR"
		},
		{
			"bufferView":21,
			"componentType":5126,
			"count":41,
			"type":"VEC4"
		},
		{
			"bufferView":22,
			"componentType":5126,
			"count":2,
			"type":"VEC3"
		},
		{
			"bufferView":23,
			"componentType":5126,
			"count":2,
			"type":"VEC3"
		},
		{
			"bufferView":24,
			"componentType":5126,
			"count":41,
			"type":"VEC4"
		},
		{
			"bufferView":25,
			"componentType":5126,
			"count":2,
			"type":"VEC3"
		},
		{
			"bufferView":26,
			"componentType":5126,
			"count":2,
			"type":"VEC3"
		},
		{
			"bufferView":27,
			"componentType":5126,
			"count":41,
			"type":"VEC4"
		},
		{
			"bufferView":28,
			"componentType":5126,
			"count":2,
			"type":"VEC3"
		},
		{
			"bufferView":29,
			"componentType":5126,
			"count":2,
			"type":"VEC3"
		},
		{
			"bufferView":30,
			"componentType":5126,
			"count":2,
			"type":"VEC4"
		},
		{
			"bufferView":31,
			"componentType":5126,
			"count":2,
			"type":"VEC3"
		},
		{
			"bufferView":32,
			"componentType":5126,
			"count":2,
			"type":"VEC3"
		},
		{
			"bufferView":33,
			"componentType":5126,
			"count":2,
			"type":"VEC4"
		},
		{
			"bufferView":34,
			"componentType":5126,
			"count":2,
			"type":"VEC3"
		},
		{
			"bufferView":35,
			"componentType":5126,
			"count":2,
			"type":"VEC3"
		},
		{
			"bufferView":36,
			"componentType":5126,
			"count":41,
			"type":"VEC4"
		},
		{
			"bufferView":37,
			"componentType":5126,
			"count":2,
			"type":"VEC3"
		},
		{
			"bufferView":38,
			"componentType":5126,
			"count":2,
			"type":"VEC3"
		},
		{
			"bufferView":39,
			"componentType":5126,
			"count":2,
			"type":"VEC4"
		},
		{
			"bufferView":40,
			"componentType":5126,
			"count":2,
			"type":"VEC3"
		},
		{
			"bufferView":41,
			"componentType":5126,
			"count":2,
			"type":"VEC3"
		},
		{
			"bufferView":42,
			"componentType":5126,
			"count":2,
			"type":"VEC4"
		},
		{
			"bufferView":43,
			"componentType":5126,
			"count":2,
			"type":"VEC3"
		},
		{
			"bufferView":44,
			"componentType":5126,
			"count":2,
			"type":"VEC3"
		},
		{
			"bufferView":45,
			"componentType":5126,
			"count":2,
			"type":"VEC4"
		},
		{
			"bufferView":46,
			"componentType":5126,
			"count":2,
			"type":"VEC3"
		},
		{
			"bufferView":47,
			"componentType":5126,
			"count":2,
			"type":"VEC3"
		},
		{
			"bufferView":48,
			"componentType":5126,
			"count":2,
			"type":"VEC4"
		},
		{
			"bufferView":49,
			"componentType":5126,
			"count":2,
			"type":"VEC3"
		},
		{
			"bufferView":50,
			"componentType":5126,
			"count":2,
			"type":"VEC3"
		},
		{
			"bufferView":51,
			"componentType":5126,
			"count":2,
			"type":"VEC4"
		},
		{
			"bufferView":52,
			"componentType":5126,
			"count":2,
			"type":"VEC3"
		},
		{
			"bufferView":53,
			"componentType":5126,
			"count":2,
			"type":"VEC3"
		},
		{
			"bufferView":54,
			"componentType":5126,
			"count":2,
			"type":"VEC4"
		},
		{
			"bufferView":55,
			"componentType":5126,
			"count":2,
			"type":"VEC3"
		},
		{
			"bufferView":56,
			"componentType":5126,
			"count":2,
			"type":"VEC3"
		},
		{
			"bufferView":57,
			"componentType":5126,
			"count":2,
			"type":"VEC4"
		},
		{
			"bufferView":58,
			"componentType":5126,
			"count":2,
			"type":"VEC3"
		},
		{
			"bufferView":59,
			"componentType":5126,
			"count":2,
			"type":"VEC3"
		},
		{
			"bufferView":60,
			"componentType":5126,
			"count":2,
			"type":"VEC4"
		},
		{
			"bufferView":61,
			"componentType":5126,
			"count":2,
			"type":"VEC3"
		}
	],
	"bufferViews":[
		{
			"buffer":0,
			"byteLength":30672,
			"byteOffset":0,
			"target":34962
		},
		{
			"buffer":0,
			"byteLength":30672,
			"byteOffset":30672,
			"target":34962
		},
		{
			"buffer":0,
			"byteLength":20448,
			"byteOffset":61344,
			"target":34962
		},
		{
			"buffer":0,
			"byteLength":20448,
			"byteOffset":81792,
			"target":34962
		},
		{
			"buffer":0,
			"byteLength":10224,
			"byteOffset":102240,
			"target":34962
		},
		{
			"buffer":0,
			"byteLength":40896,
			"byteOffset":112464,
			"target":34962
		},
		{
			"buffer":0,
			"byteLength":27240,
			"byteOffset":153360,
			"target":34963
		},
		{
			"buffer":0,
			"byteLength":13416,
			"byteOffset":180600,
			"target":34962
		},
		{
			"buffer":0,
			"byteLength":13416,
			"byteOffset":194016,
			"target":34962
		},
		{
			"buffer":0,
			"byteLength":8944,
			"byteOffset":207432,
			"target":34962
		},
		{
			"buffer":0,
			"byteLength":8944,
			"byteOffset":216376,
			"target":34962
		},
		{
			"buffer":0,
			"byteLength":4472,
			"byteOffset":225320,
			"target":34962
		},
		{
			"buffer":0,
			"byteLength":17888,
			"byteOffset":229792,
			"target":34962
		},
		{
			"buffer":0,
			"byteLength":11520,
			"byteOffset":247680,
			"target":34963
		},
		{
			"buffer":0,
			"byteLength":960,
			"byteOffset":259200
		},
		{
			"buffer":0,
			"byteLength":8,
			"byteOffset":260160
		},
		{
			"buffer":0,
			"byteLength":24,
			"byteOffset":260168
		},
		{
			"buffer":0,
			"byteLength":32,
			"byteOffset":260192
		},
		{
			"buffer":0,
			"byteLength":24,
			"byteOffset":260224
		},
		{
			"buffer":0,
			"byteLength":24,
			"byteOffset":260248
		},
		{
			"buffer":0,
			"byteLength":164,
			"byteOffset":260272
		},
		{
			"buffer":0,
			"byteLength":656,
			"byteOffset":260436
		},
		{
			"buffer":0,
			"byteLength":24,
			"byteOffset":261092
		},
		{
			"buffer":0,
			"byteLength":24,
			"byteOffset":261116
		},
		{
			"buffer":0,
			"byteLength":656,
			"byteOffset":261140
		},
		{
			"buffer":0,
			"byteLength":24,
			"byteOffset":261796
		},
		{
			"buffer":0,
			"byteLength":24,
			"byteOffset":261820
		},
		{
			"buffer":0,
			"byteLength":656,
			"byteOffset":261844
		},
		{
			"buffer":0,
			"byteLength":24,
			"byteOffset":262500
		},
		{
			"buffer":0,
			"byteLength":24,
			"byteOffset":262524
		},
		{
			"buffer":0,
			"byteLength":32,
			"byteOffset":262548
		},
		{
			"buffer":0,
			"byteLength":24,
			"byteOffset":262580
		},
		{
			"buffer":0,
			"byteLength":24,
			"byteOffset":262604
		},
		{
			"buffer":0,
			"byteLength":32,
			"byteOffset":262628
		},
		{
			"buffer":0,
			"byteLength":24,
			"byteOffset":262660
		},
		{
			"buffer":0,
			"byteLength":24,
			"byteOffset":262684
		},
		{
			"buffer":0,
			"byteLength":656,
			"byteOffset":262708
		},
		{
			"buffer":0,
			"byteLength":24,
			"byteOffset":263364
		},
		{
			"buffer":0,
			"byteLength":24,
			"byteOffset":263388
		},
		{
			"buffer":0,
			"byteLength":32,
			"byteOffset":263412
		},
		{
			"buffer":0,
			"byteLength":24,
			"byteOffset":263444
		},
		{
			"buffer":0,
			"byteLength":24,
			"byteOffset":263468
		},
		{
			"buffer":0,
			"byteLength":32,
			"byteOffset":263492
		},
		{
			"buffer":0,
			"byteLength":24,
			"byteOffset":263524
		},
		{
			"buffer":0,
			"byteLength":24,
			"byteOffset":263548
		},
		{
			"buffer":0,
			"byteLength":32,
			"byteOffset":263572
		},
		{
			"buffer":0,
			"byteLength":24,
			"byteOffset":263604
		},
		{
			"buffer":0,
			"byteLength":24,
			"byteOffset":263628
		},
		{
			"buffer":0,
			"byteLength":32,
			"byteOffset":263652
		},
		{
			"buffer":0,
			"byteLength":24,
			"byteOffset":263684
		},
		{
			"buffer":0,
			"byteLength":24,
			"byteOffset":263708
		},
		{
			"buffer":0,
			"byteLength":32,
			"byteOffset":263732
		},
		{
			"buffer":0,
			"byteLength":24,
			"byteOffset":263764
		},
		{
			"buffer":0,
			"byteLength":24,
			"byteOffset":263788
		},
		{
			"buffer":0,
			"byteLength":32,
			"byteOffset":263812
		},
		{
			"buffer":0,
			"byteLength":24,
			"byteOffset":263844
		},
		{
			"buffer":0,
			"byteLength":24,
			"byteOffset":263868
		},
		{
			"buffer":0,
			"byteLength":32,
			"byteOffset":263892
		},
		{
			"buffer":0,
			"byteLength":24,
			"byteOffset":263924
		},
		{
			"buffer":0,
			"byteLength":24,
			"byteOffset":263948
		},
		{
			"buffer":0,
			"byteLength":32,
			"byteOffset":263972
		},
		{
			"buffer":0,
			"byteLength":24,
			"byteOffset":264004
		}
	],
	"buffers":[
		{
			"byteLength":264028,
			"uri":"sk_tiny_creature.bin"
		}
	]
}
