{
	"asset":{
		"generator":"Khronos glTF Blender I/O v4.4.56",
		"version":"2.0"
	},
	"scene":0,
	"scenes":[
		{
			"name":"Scene",
			"nodes":[
				0
			]
		}
	],
	"nodes":[
		{
			"mesh":0,
			"name":"grass",
			"scale":[
				0.07405978441238403,
				0.2995581030845642,
				0.020739100873470306
			]
		}
	],
	"materials":[
		{
			"doubleSided":true,
			"name":"Material",
			"pbrMetallicRoughness":{
				"baseColorFactor":[
					0.21604295074939728,
					0.32670289278030396,
					0.1781981736421585,
					1
				],
				"metallicFactor":0,
				"roughnessFactor":0.5
			}
		}
	],
	"meshes":[
		{
			"name":"Cube.007",
			"primitives":[
				{
					"attributes":{
						"POSITION":0,
						"NORMAL":1,
						"TEXCOORD_0":2
					},
					"indices":3,
					"material":0
				}
			]
		}
	],
	"accessors":[
		{
			"bufferView":0,
			"componentType":5126,
			"count":113,
			"max":[
				1.4580339193344116,
				1.8196005821228027,
				0.8665590286254883
			],
			"min":[
				-4.712871551513672,
				-0.160186767578125,
				-4.38719367980957
			],
			"type":"VEC3"
		},
		{
			"bufferView":1,
			"componentType":5126,
			"count":113,
			"type":"VEC3"
		},
		{
			"bufferView":2,
			"componentType":5126,
			"count":113,
			"type":"VEC2"
		},
		{
			"bufferView":3,
			"componentType":5123,
			"count":444,
			"type":"SCALAR"
		}
	],
	"bufferViews":[
		{
			"buffer":0,
			"byteLength":1356,
			"byteOffset":0,
			"target":34962
		},
		{
			"buffer":0,
			"byteLength":1356,
			"byteOffset":1356,
			"target":34962
		},
		{
			"buffer":0,
			"byteLength":904,
			"byteOffset":2712,
			"target":34962
		},
		{
			"buffer":0,
			"byteLength":888,
			"byteOffset":3616,
			"target":34963
		}
	],
	"buffers":[
		{
			"byteLength":4504,
			"uri":"grass.bin"
		}
	]
}
