{
	"asset":{
		"generator":"Khronos glTF Blender I/O v4.4.56",
		"version":"2.0"
	},
	"scene":0,
	"scenes":[
		{
			"name":"Scene",
			"nodes":[
				0
			]
		}
	],
	"nodes":[
		{
			"mesh":0,
			"name":"tree"
		}
	],
	"materials":[
		{
			"doubleSided":true,
			"name":"Material",
			"pbrMetallicRoughness":{
				"baseColorFactor":[
					0.21604295074939728,
					0.32670289278030396,
					0.1781981736421585,
					1
				],
				"metallicFactor":0
			}
		},
		{
			"doubleSided":true,
			"name":"Material.003",
			"pbrMetallicRoughness":{
				"baseColorFactor":[
					0.48936864733695984,
					0.30393165349960327,
					0.16226327419281006,
					1
				],
				"metallicFactor":0,
				"roughnessFactor":0.5
			}
		}
	],
	"meshes":[
		{
			"name":"Cube.002",
			"primitives":[
				{
					"attributes":{
						"POSITION":0,
						"NORMAL":1,
						"TEXCOORD_0":2
					},
					"indices":3,
					"material":0
				},
				{
					"attributes":{
						"POSITION":4,
						"NORMAL":5,
						"TEXCOORD_0":6
					},
					"indices":7,
					"material":1
				}
			]
		}
	],
	"accessors":[
		{
			"bufferView":0,
			"componentType":5126,
			"count":223,
			"max":[
				0.9457910060882568,
				3.5208888053894043,
				1.3174220323562622
			],
			"min":[
				-0.92354416847229,
				1.508689284324646,
				-1.313541054725647
			],
			"type":"VEC3"
		},
		{
			"bufferView":1,
			"componentType":5126,
			"count":223,
			"type":"VEC3"
		},
		{
			"bufferView":2,
			"componentType":5126,
			"count":223,
			"type":"VEC2"
		},
		{
			"bufferView":3,
			"componentType":5123,
			"count":810,
			"type":"SCALAR"
		},
		{
			"bufferView":4,
			"componentType":5126,
			"count":98,
			"max":[
				0.5806934833526611,
				2.204103946685791,
				0.9456976652145386
			],
			"min":[
				-0.30324816703796387,
				-0.18721520900726318,
				-0.8538244962692261
			],
			"type":"VEC3"
		},
		{
			"bufferView":5,
			"componentType":5126,
			"count":98,
			"type":"VEC3"
		},
		{
			"bufferView":6,
			"componentType":5126,
			"count":98,
			"type":"VEC2"
		},
		{
			"bufferView":7,
			"componentType":5123,
			"count":456,
			"type":"SCALAR"
		}
	],
	"bufferViews":[
		{
			"buffer":0,
			"byteLength":2676,
			"byteOffset":0,
			"target":34962
		},
		{
			"buffer":0,
			"byteLength":2676,
			"byteOffset":2676,
			"target":34962
		},
		{
			"buffer":0,
			"byteLength":1784,
			"byteOffset":5352,
			"target":34962
		},
		{
			"buffer":0,
			"byteLength":1620,
			"byteOffset":7136,
			"target":34963
		},
		{
			"buffer":0,
			"byteLength":1176,
			"byteOffset":8756,
			"target":34962
		},
		{
			"buffer":0,
			"byteLength":1176,
			"byteOffset":9932,
			"target":34962
		},
		{
			"buffer":0,
			"byteLength":784,
			"byteOffset":11108,
			"target":34962
		},
		{
			"buffer":0,
			"byteLength":912,
			"byteOffset":11892,
			"target":34963
		}
	],
	"buffers":[
		{
			"byteLength":12804,
			"uri":"tree.bin"
		}
	]
}
