{
	"asset":{
		"generator":"Khronos glTF Blender I/O v4.4.56",
		"version":"2.0"
	},
	"scene":0,
	"scenes":[
		{
			"name":"Scene",
			"nodes":[
				0
			]
		}
	],
	"nodes":[
		{
			"mesh":0,
			"name":"tree",
			"rotation":[
				0,
				0.9896514415740967,
				0,
				0.1434922218322754
			],
			"scale":[
				0.3154621720314026,
				0.5726887583732605,
				0.3154621720314026
			],
			"translation":[
				-2.911245346069336,
				-0.0821695327758789,
				0.17844504117965698
			]
		}
	],
	"materials":[
		{
			"doubleSided":true,
			"name":"Material",
			"pbrMetallicRoughness":{
				"baseColorFactor":[
					0.21604295074939728,
					0.32670289278030396,
					0.1781981736421585,
					1
				],
				"metallicFactor":0,
				"roughnessFactor":0.5
			}
		},
		{
			"doubleSided":true,
			"name":"Material.003",
			"pbrMetallicRoughness":{
				"baseColorFactor":[
					0.48936864733695984,
					0.30393165349960327,
					0.16226327419281006,
					1
				],
				"metallicFactor":0,
				"roughnessFactor":0.5
			}
		}
	],
	"meshes":[
		{
			"name":"Cube.002",
			"primitives":[
				{
					"attributes":{
						"POSITION":0,
						"NORMAL":1,
						"TEXCOORD_0":2
					},
					"indices":3,
					"material":0
				},
				{
					"attributes":{
						"POSITION":4,
						"NORMAL":5,
						"TEXCOORD_0":6
					},
					"indices":7,
					"material":1
				}
			]
		}
	],
	"accessors":[
		{
			"bufferView":0,
			"componentType":5126,
			"count":223,
			"max":[
				2.5662448406219482,
				6.291477203369141,
				4.3695526123046875
			],
			"min":[
				-3.2113864421844482,
				2.777876853942871,
				-4.259771347045898
			],
			"type":"VEC3"
		},
		{
			"bufferView":1,
			"componentType":5126,
			"count":223,
			"type":"VEC3"
		},
		{
			"bufferView":2,
			"componentType":5126,
			"count":223,
			"type":"VEC2"
		},
		{
			"bufferView":3,
			"componentType":5123,
			"count":810,
			"type":"SCALAR"
		},
		{
			"bufferView":4,
			"componentType":5126,
			"count":98,
			"max":[
				0.9166667461395264,
				3.9921746253967285,
				2.7812769412994385
			],
			"min":[
				-1.3146618604660034,
				-0.18342530727386475,
				-2.9140727519989014
			],
			"type":"VEC3"
		},
		{
			"bufferView":5,
			"componentType":5126,
			"count":98,
			"type":"VEC3"
		},
		{
			"bufferView":6,
			"componentType":5126,
			"count":98,
			"type":"VEC2"
		},
		{
			"bufferView":7,
			"componentType":5123,
			"count":456,
			"type":"SCALAR"
		}
	],
	"bufferViews":[
		{
			"buffer":0,
			"byteLength":2676,
			"byteOffset":0,
			"target":34962
		},
		{
			"buffer":0,
			"byteLength":2676,
			"byteOffset":2676,
			"target":34962
		},
		{
			"buffer":0,
			"byteLength":1784,
			"byteOffset":5352,
			"target":34962
		},
		{
			"buffer":0,
			"byteLength":1620,
			"byteOffset":7136,
			"target":34963
		},
		{
			"buffer":0,
			"byteLength":1176,
			"byteOffset":8756,
			"target":34962
		},
		{
			"buffer":0,
			"byteLength":1176,
			"byteOffset":9932,
			"target":34962
		},
		{
			"buffer":0,
			"byteLength":784,
			"byteOffset":11108,
			"target":34962
		},
		{
			"buffer":0,
			"byteLength":912,
			"byteOffset":11892,
			"target":34963
		}
	],
	"buffers":[
		{
			"byteLength":12804,
			"uri":"tree.bin"
		}
	]
}
