<?xml version="1.0" encoding="UTF-8"?><svg id="Layer_2" xmlns="http://www.w3.org/2000/svg" viewBox="0 0 568.99 186.17"><g id="Layer_1-2"><path d="M198.33,7.3c5.33,2.19,8.93,6.84,10.79,13.96l15.01,17.86,8.19,20.53,24.56,39.67,4.36,11.19c.69,1.76.44,3.75-.65,5.29l-.98,1.38h-6.82c-8.57-2.57-14.02-8.09-16.37-16.58l-10.92-19.24c-1.8-5.43-12.13-15.17-18.62-21.45-1.82-1.76-4.82-1.24-5.94,1.02l-17.46,35.27-2.99,15.08c-.45,2.29-2.33,4.03-4.65,4.31l-24.03,2.87-6.82-2.57-16.37-16.58-8.16-13.63c-1.44-2.41-4.5-2.9-6.6-1.51-1.27.84-2.81,1.14-4.24.65h0c-1.28-.44-2.7,0-3.52,1.07-3.54,4.65-14.47,17.77-43.47,77.75-1.32,2.74-3.45,5.02-6.1,6.52l-17.1,9.69-12.28,3.74c-3.34,1.02-6.83-1.08-7.5-4.51h0s31.21-88.75,31.21-88.75l2.73-2.57,23.2-62.76,5.96-10.2c1.57-2.69,4.98-3.82,7.76-2.41s5.07,3.96,6.75,7.58l12.28,15.3,12.28,24.37,18.92,27.13c1.97,2.83,6.23,2.61,7.9-.41,21.51-38.8,35.02-63.96,40.52-75.47,1.64-3.43,5.68-5.04,9.2-3.59Z"/><path d="M322.07,7.94l1.09,1.26,4.06,3.78c1.74,1.62,1.66,4.4-.17,5.91l-2.91,2.4c-1.17.97-2.65,1.47-4.17,1.41l-1.82-.07c-1.5-.06-2.96-.5-4.24-1.27l-2.07-1.25c-2.47-1.49-5.37-2.08-8.22-1.67l-5.17.74c-3.24.47-6.37,1.5-9.24,3.05l-3.19,1.72c-1.77.95-2.89,2.79-2.94,4.8l-.5,21.49-1.03,8.19c-.17,1.32-.7,2.54-1.28,3.75-.53,1.09.1,2.61,1.56,2.72l4.05.32,8.57-1.59c3.14-.58,6.33-.82,9.51-.7l4.04.15,4.45,1.26,4.39,1.86c2.81,1.19,4.08,4.48,2.79,7.24l-1.02,2.19c-.93,1.99-3.14,3.05-5.27,2.51l-1.23-.31-4.43.59-8.52.89-6.94,2.55c-1.23.45-2.23,1.37-2.77,2.56l-2.97,6.43c-.63,1.37-1.06,2.81-1.29,4.3l-1.83,12.08h0c-.11,1.19.19,2.39.85,3.39l3,4.49c.82,1.23,2.25,1.94,3.73,1.8,4.78-.46,9.8-1.9,15.08-4.32,4.46-1.44,8.58,1.17,12.35-2.75l.45-2.34c.35-1.84,1.75-3.31,3.57-3.76l4.22-1.05,2.88.5c1.42.25,2.62,1.17,3.23,2.48l1.1,2.38v5.43c-.23,5.56-3.66,9.13-10.3,10.72l-45.3,1.79-10.3-1.79-1.95-2.12c-1.36-1.47-1.92-3.51-1.51-5.48l1.4-6.7.39-2.94c.24-1.82.2-3.68-.13-5.49l-.26-1.4-5.37-32.71c-.23-1.43-.19-2.88.14-4.29h0c.36-1.54.42-3.14.19-4.71l-5.16-35.29c-.29-1.98.4-3.98,1.85-5.36l5.94-5.66c1.72-1.64,3.96-2.63,6.33-2.8l47.22-3.42c1.92-.14,3.79.64,5.05,2.1Z"/><path d="M348.14,0h6.42c.2,0,.4.02.59.07l7.14,1.72c3.08.74,5.7,2.76,7.2,5.55l1.59,2.96c1.43,2.65,3.62,4.81,6.3,6.19l38.89,20.04c.43.22.79.57,1.04.99l.81,1.4c.12.21.27.41.45.58,5.08,4.87,11.06,9.02,13.17,17.23.02.07.04.13.06.19l1.7,4.68c1.77,4.87,1.47,12.71-.68,17.43l-12.08,26.54c-.71,1.55-1.74,2.93-3.03,4.05l-14.1,12.24c-.21.18-.45.33-.7.43l-21.76,8.89c-.67.27-1.42.25-2.06-.06l-18.93-9.16c-.82-.4-1.8-.32-2.55.2-5.31,3.62,1.3,7.86-7.8,8.1-.26,0-.53-.03-.78-.1l-5.92-1.71c-1.11-.32-1.87-1.36-1.83-2.52l4.01-122.92c.01-.42.13-.82.34-1.18l.32-.55c.45-.79,1.29-1.27,2.2-1.27ZM356.52,75.25l2.09,27.27c.33,4.33,4.31,7.43,8.59,6.71h0c.41-.07.8-.24,1.12-.49l8.5-6.56c2.18-1.68,4.13-3.63,5.8-5.81l3.07-4c1.71-2.23,2.95-4.78,3.65-7.5l.57-2.21c.73-2.85.82-5.82.27-8.7l-.95-4.94c-.62-3.23-1.82-6.32-3.54-9.13l-8.31-13.52-2.31-3.38c-2.48-3.62-8.07-2.64-9.17,1.61l-.75,2.92c-.04.16-.1.31-.17.46l-5.5,11.5c-2.35,4.91-3.37,10.36-2.95,15.79Z"/><path d="M480.02,13.12h0c3.48-.81,7.06.9,8.63,4.11l36.84,75.62c.03.07.06.14.09.21l30.58,79.72c1.87,4.87-1.35,10.2-6.53,10.81l-1.35.16c-2.03.24-4.08-.25-5.78-1.39l-6.75-4.5c-1.83-1.22-3.29-2.92-4.22-4.91l-42.21-90.18c-2.14-4.58-8.63-4.62-10.84-.07l-15.39,31.73c-1.46,3.02-3.9,5.46-6.92,6.92l-17.87,8.69c-2.36,1.15-5.07,1.3-7.54.43l-5.5-1.94c-.95-.33-1.62-1.18-1.74-2.18l-1.07-9.17c-.06-.55.05-1.1.31-1.59l44.49-80.24c.08-.15.15-.31.21-.48l4.01-12.58c1.11-3.65,3.72-6.62,7.85-8.9.22-.12.46-.21.71-.27Z"/><path d="M177.82,136.27c.57-.94,1.31-1.85,2.23-2.74.85-.82,1.7-1.49,2.55-2s1.68-.77,2.5-.77c.6,0,1.2.09,1.78.28.58.19.88.49.88.9,0,.31-.21.68-.64,1.13-.21.21-.37.38-.48.51-.07.1-.18.26-.32.46-.25.34-.46.6-.64.77-.18.17-.39.26-.64.26-.21,0-.51-.14-.9-.41-.39-.27-.73-.41-1.01-.41-.43,0-.8.18-1.12.54-.32.36-.48.83-.48,1.41l.05,15.89h2.34c.64,0,.96.14.96.41,0,.1-.05.24-.16.41l-1.6,2.72c-.18.27-.5.41-.96.41h-.58l-.05,21.38c0,.51-.23.92-.69,1.23l-3.14,2c-.14.1-.27.15-.37.15-.25,0-.37-.31-.37-.92v-23.84h-2.34c-.53,0-.8-.14-.8-.41,0-.17.07-.38.21-.62l1.33-2.21c.28-.48.71-.72,1.28-.72h.32v-13.07c0-.89.28-1.8.85-2.74Z"/><path d="M208.02,155.34c2.41,2.17,3.62,4.9,3.62,8.18,0,1.54-.35,3.01-1.06,4.41s-1.68,2.63-2.92,3.69c-1.24,1.06-2.69,1.89-4.33,2.49-1.65.6-3.39.9-5.24.9-4.15,0-7.42-1.09-9.81-3.28-2.39-2.19-3.59-4.92-3.59-8.2,0-1.54.35-3.01,1.04-4.41.69-1.4,1.66-2.63,2.9-3.69,1.24-1.06,2.69-1.88,4.33-2.46s3.38-.87,5.18-.87c4.18,0,7.48,1.09,9.89,3.26ZM190.98,156.83c-1.36,1.49-2.05,3.51-2.05,6.08,0,1.2.32,2.38.96,3.56.64,1.18,1.49,2.24,2.55,3.18,1.06.94,2.25,1.68,3.56,2.21,1.31.53,2.6.79,3.88.79,2.52,0,4.44-.71,5.77-2.13s1.99-3.19,1.99-5.31c0-1.2-.3-2.43-.9-3.69-.6-1.26-1.44-2.43-2.5-3.49-1.06-1.06-2.23-1.9-3.51-2.51s-2.55-.92-3.83-.92c-2.59,0-4.56.74-5.93,2.23Z"/><path d="M222.16,170.96c.64.34.96.72.96,1.13,0,.27-.16.58-.48.92l-1.75,1.9c-.18.21-.41.31-.69.31-.25,0-.57-.1-.96-.31l-5.21-2.61c-.35-.17-.53-.36-.53-.56,0-.1.09-.24.27-.41l2.02-1.59v-12.92l-1.65-1.49c-.28-.27-.43-.55-.43-.82,0-.14.11-.31.32-.51l1.75-1.74c.25-.24.48-.36.69-.36.46,0,.92.15,1.38.46l1.44.82c.71.41,1.06.92,1.06,1.54l.32-.26c.89-.72,1.66-1.25,2.31-1.59.66-.34,1.39-.51,2.21-.51.39,0,.81.13,1.25.38.44.26.86.56,1.25.9.71.62,1.06,1.2,1.06,1.74,0,.34-.08.6-.24.77s-.4.34-.72.51c-.14.07-.27.14-.37.21-.14.1-.28.22-.43.36-.57.44-1.03.67-1.38.67s-.78-.27-1.28-.82c-.32-.38-.61-.65-.88-.82-.27-.17-.59-.26-.98-.26-.67,0-1.38.27-2.13.82v13.18l1.81.97Z"/><path d="M252.51,154.63c.28.26.43.45.43.59,0,.24-.27.56-.8.97l-15.79,11.02c.96,1.23,2.23,2.21,3.83,2.95,1.59.74,3.24,1.1,4.94,1.1,1.31,0,2.42-.16,3.32-.49.9-.32,1.75-.78,2.53-1.36.11-.1.19-.17.27-.21.28-.27.5-.41.64-.41s.32.1.53.31l.48.51c.14.14.21.26.21.36s-.09.24-.27.41c-.07.03-.14.08-.21.15-1.56,1.16-3.15,2.08-4.78,2.74-1.63.67-3.37,1-5.21,1-4.11,0-7.15-.97-9.12-2.9s-2.95-4.55-2.95-7.87c0-1.47.36-2.83,1.09-4.08.73-1.25,1.75-2.44,3.06-3.56,1.35-1.16,2.79-2.08,4.33-2.77,1.54-.68,3.2-1.03,4.97-1.03,2.84,0,5.32.6,7.44,1.79.43.24.78.49,1.06.74ZM240.1,155.16c-.9.38-1.77.93-2.6,1.67-.83.74-1.51,1.6-2.02,2.59-.51.99-.77,2.08-.77,3.28,0,.96.23,1.93.69,2.92l12.44-8.82c-.99-.82-1.85-1.39-2.58-1.72-.73-.32-1.62-.49-2.69-.49-.74,0-1.57.19-2.47.56Z"/><path d="M273.51,171.11c-.67.85-1.56,1.55-2.66,2.1-1.1.55-2.28.96-3.54,1.23-1.26.27-2.47.41-3.64.41-.82,0-1.72-.11-2.71-.33-.99-.22-1.95-.52-2.87-.9-.92-.38-1.68-.79-2.29-1.26-.6-.46-.9-.93-.9-1.41,0-.34.19-.64.58-.9.39-.26.92-.52,1.59-.79h.05l.21-.1c.64-.24,1.19-.36,1.65-.36.18,0,.55.24,1.12.72.96.79,2.01,1.44,3.16,1.95,1.15.51,2.67.77,4.55.77.81,0,1.61-.35,2.39-1.05.78-.7,1.17-1.43,1.17-2.18,0-1.13-.61-2.08-1.83-2.85-1.22-.77-3.08-1.63-5.56-2.59-.89-.34-1.54-.6-1.97-.77-1.95-.82-3.39-1.63-4.33-2.44-.94-.8-1.41-1.99-1.41-3.56,0-3.14,2.82-4.72,8.45-4.72.71,0,1.52.09,2.45.26.92.17,1.81.41,2.66.72s1.54.67,2.07,1.08.8.84.8,1.28c0,.34-.16.62-.48.85-.32.22-.76.45-1.33.69l-.16.05c-.21.1-.35.17-.43.21-.64.27-1.17.41-1.6.41-.35,0-.9-.43-1.65-1.28-.6-.72-1.2-1.29-1.78-1.72-.58-.43-1.32-.64-2.21-.64-.74,0-1.44.15-2.07.44-.64.29-.96.76-.96,1.41,0,.68.41,1.26,1.22,1.74.81.48,2.09,1.04,3.83,1.69,1.52.58,2.75,1.08,3.67,1.49.92.41,1.83.96,2.74,1.64s1.63,1.5,2.18,2.43c.55.94.82,2.04.82,3.31,0,1.13-.34,2.12-1.01,2.97Z"/><path d="M285.05,170.96c.64.34.96.72.96,1.13,0,.27-.16.58-.48.92l-1.75,1.9c-.18.21-.41.31-.69.31-.25,0-.57-.1-.96-.31l-5.21-2.61c-.35-.17-.53-.36-.53-.56,0-.1.09-.24.27-.41l2.02-1.59v-13.79h-1.54c-.21,0-.4-.07-.56-.21s-.24-.34-.24-.62c0-.14.25-.5.74-1.1.5-.6,1.03-1.21,1.6-1.82.53-.58.94-1.09,1.22-1.54.28-.44.58-1.04.9-1.79.07-.17.19-.48.37-.92.39-.92.68-1.57.88-1.95.19-.38.38-.56.56-.56.14,0,.28.12.43.36.14.24.21.48.21.72v5.54h3.03c.32,0,.6.07.85.21.25.14.37.31.37.51,0,.34-.23.82-.69,1.44-.07.1-.14.19-.21.26-.35.44-.74.79-1.14,1.05-.41.26-.93.38-1.57.38h-.64v14.1l1.81.97Z"/><path d="M328.59,155.34c2.41,2.17,3.62,4.9,3.62,8.18,0,1.54-.35,3.01-1.06,4.41s-1.68,2.63-2.92,3.69c-1.24,1.06-2.69,1.89-4.33,2.49-1.65.6-3.39.9-5.24.9-4.15,0-7.42-1.09-9.81-3.28-2.39-2.19-3.59-4.92-3.59-8.2,0-1.54.35-3.01,1.04-4.41.69-1.4,1.66-2.63,2.9-3.69,1.24-1.06,2.69-1.88,4.33-2.46s3.38-.87,5.18-.87c4.18,0,7.48,1.09,9.89,3.26ZM311.55,156.83c-1.36,1.49-2.05,3.51-2.05,6.08,0,1.2.32,2.38.96,3.56.64,1.18,1.49,2.24,2.55,3.18,1.06.94,2.25,1.68,3.56,2.21,1.31.53,2.6.79,3.88.79,2.52,0,4.44-.71,5.77-2.13s1.99-3.19,1.99-5.31c0-1.2-.3-2.43-.9-3.69-.6-1.26-1.44-2.43-2.5-3.49-1.06-1.06-2.23-1.9-3.51-2.51s-2.55-.92-3.83-.92c-2.59,0-4.56.74-5.93,2.23Z"/><path d="M338.05,136.27c.57-.94,1.31-1.85,2.23-2.74.85-.82,1.7-1.49,2.55-2s1.68-.77,2.5-.77c.6,0,1.2.09,1.78.28.58.19.88.49.88.9,0,.31-.21.68-.64,1.13-.21.21-.37.38-.48.51-.07.1-.18.26-.32.46-.25.34-.46.6-.64.77-.18.17-.39.26-.64.26-.21,0-.51-.14-.9-.41-.39-.27-.73-.41-1.01-.41-.43,0-.8.18-1.12.54-.32.36-.48.83-.48,1.41l.05,15.89h2.34c.64,0,.96.14.96.41,0,.1-.05.24-.16.41l-1.6,2.72c-.18.27-.5.41-.96.41h-.58l-.05,21.38c0,.51-.23.92-.69,1.23l-3.14,2c-.14.1-.27.15-.37.15-.25,0-.37-.31-.37-.92v-23.84h-2.34c-.53,0-.8-.14-.8-.41,0-.17.07-.38.21-.62l1.33-2.21c.28-.48.71-.72,1.28-.72h.32v-13.07c0-.89.28-1.8.85-2.74Z"/><path d="M374.47,170.96c.64.34.96.72.96,1.13,0,.27-.16.58-.48.92l-1.75,1.9c-.18.21-.41.31-.69.31-.25,0-.57-.1-.96-.31l-5.21-2.61c-.35-.17-.53-.36-.53-.56,0-.1.09-.24.27-.41l2.02-1.59v-12.92l-1.65-1.49c-.28-.27-.43-.55-.43-.82,0-.14.11-.31.32-.51l1.75-1.74c.25-.24.48-.36.69-.36.46,0,.92.15,1.38.46l1.44.82c.71.41,1.06.92,1.06,1.54l.32-.26c.89-.72,1.66-1.25,2.31-1.59.66-.34,1.39-.51,2.21-.51.39,0,.81.13,1.25.38.44.26.86.56,1.25.9.71.62,1.06,1.2,1.06,1.74,0,.34-.08.6-.24.77s-.4.34-.72.51c-.14.07-.27.14-.37.21-.14.1-.28.22-.43.36-.57.44-1.03.67-1.38.67s-.78-.27-1.28-.82c-.32-.38-.61-.65-.88-.82-.27-.17-.59-.26-.98-.26-.67,0-1.38.27-2.13.82v13.18l1.81.97Z"/><path d="M406.21,155.34c2.41,2.17,3.62,4.9,3.62,8.18,0,1.54-.35,3.01-1.06,4.41s-1.68,2.63-2.92,3.69c-1.24,1.06-2.69,1.89-4.33,2.49-1.65.6-3.39.9-5.24.9-4.15,0-7.42-1.09-9.81-3.28-2.39-2.19-3.59-4.92-3.59-8.2,0-1.54.35-3.01,1.04-4.41.69-1.4,1.66-2.63,2.9-3.69,1.24-1.06,2.69-1.88,4.33-2.46s3.38-.87,5.18-.87c4.18,0,7.48,1.09,9.89,3.26ZM389.17,156.83c-1.36,1.49-2.05,3.51-2.05,6.08,0,1.2.32,2.38.96,3.56.64,1.18,1.49,2.24,2.55,3.18,1.06.94,2.25,1.68,3.56,2.21,1.31.53,2.6.79,3.88.79,2.52,0,4.44-.71,5.77-2.13s1.99-3.19,1.99-5.31c0-1.2-.3-2.43-.9-3.69-.6-1.26-1.44-2.43-2.5-3.49-1.06-1.06-2.23-1.9-3.51-2.51s-2.55-.92-3.83-.92c-2.59,0-4.56.74-5.93,2.23Z"/><path d="M420.35,170.96c.64.34.96.72.96,1.13,0,.27-.16.58-.48.92l-1.75,1.9c-.18.21-.41.31-.69.31-.25,0-.57-.1-.96-.31l-5.21-2.61c-.35-.17-.53-.36-.53-.56,0-.1.09-.24.27-.41l2.02-1.59v-13.79h-1.54c-.21,0-.4-.07-.56-.21s-.24-.34-.24-.62c0-.14.25-.5.74-1.1.5-.6,1.03-1.21,1.6-1.82.53-.58.94-1.09,1.22-1.54.28-.44.58-1.04.9-1.79.07-.17.19-.48.37-.92.39-.92.68-1.57.88-1.95s.38-.56.56-.56c.14,0,.28.12.43.36.14.24.21.48.21.72v5.54h3.03c.32,0,.6.07.85.21.25.14.37.31.37.51,0,.34-.23.82-.69,1.44-.07.1-.14.19-.21.26-.36.44-.74.79-1.14,1.05-.41.26-.93.38-1.57.38h-.64v14.1l1.81.97Z"/><path d="M171.96,110.84l3.58,8.17c.8,1.82,1.88,3.49,3.2,4.97l6.14,6.84-2.5.77-10.42-17.14v-3.6Z"/><polygon points="222.76 152.91 228.23 143.67 230.24 137.34 232.98 128.69 234.44 121.21 234.44 114.81 234.44 106.04 233.54 95.54 238.46 100.56 236.63 108.23 235.54 124.23 230.61 144.77 227.46 153.68 222.76 152.91"/><path d="M89.11,95.31l31.45,26.7c2.04,1.73,4.2,3.33,6.45,4.78l14.47,9.29c3.24,2.08,6.84,3.52,10.62,4.24l.96.18,1.67.78c3.17,1.49,6.55,2.49,10.02,2.97l13.66,1.89-.33,4.05-30.58-9.04c-4.34-1.28-8.56-2.96-12.6-5.02l-6.29-3.2c-2.76-1.41-5.38-3.09-7.8-5.03l-7.12-5.7c-4.02-3.22-8.38-5.99-13-8.28l-11.6-5.73v-12.89Z"/><path d="M182.12,132.43l-1.91,1.57-4.53-8.96-3.49-5.92c-.67-1.14-1.67-2.05-2.87-2.62l-3.1-1.47h4.58s1.74,4.26,2.09,4.09c.95-.45,2.81,4.45,4.24,6.7.59.93,1.35,1.72,2.24,2.36l4.38,3.74-1.64.51Z"/><path d="M180.9,139.22l3.13,7.92s2.26,1.74,2.52,1.74,2.52,1.39,3.39,1.74,3.92.61,3.92.61l3.92.52,1.74.39-7.92,2.3-.61-1.83-2.7-1.83-2-1.22-3.22-2.44-1.31-2.44h-.87v-5.48Z"/><path d="M241.71,153.14s2.47-.26,2.82,0,3.09,1.31,3.09,1.31h1.41v-1.43l-.79-3.24-.35-6.71v-8.38c0-.62,0-7.59.35-8.82s.53-2.38,1.32-3.44,2.47-3.44,2.47-3.44c0,0,1.5-1.81,1.59-1.81s1.59-1.54,1.59-1.54l-9.09-4.76,1.68,5.21s-.09.79-.26,2.03-.26,2.29-.35,2.82-.18,3.3-.09,3.68.44,4.88.09,5.76-.53,5.29-.62,6.18-.71,5.74-.88,6.62-.26,3.71-.62,4.41-1.15,2.91-1.15,2.91l-2.21,2.65Z"/><path d="M283,151.19s3.97-12.71,4.32-13.68,1.41-2.29,2.38-4.15.88-1.68,2.38-3.26,2.21-2.74,3-3.26,1.41-1.02,1.41-1.02l1.76-1.21s-6.35-.86-7.15-.77l-.79.09,2.21,1.15s0,.42-.26,1.18-.53,1.56-.97,2.08-.71.62-.66.97-.66,1.5-.66,1.5c0,0-.35.02-.71,1.07s0,.61-.62,1.58-.62,1.06-.79,1.5-.79,2.11-1.06,2.56-2.56,7.06-2.56,7.06l-1.85,2.65.62,3.97Z"/><path d="M204.92,158.69s.18,1.5,0,1.94,1.06-.97-.35,1.24-.62.88-1.41,2.21.79.35-.79,1.32-.62.62-1.59.97-.09-.26-.97.35-1.24.88-1.68.97-.71,0-1.5.53l-.79.53-1.32.97s-.53.35-.88.62,2.66,2.48,2.66,2.48c0,0,.97-2.87,1.15-3.22s1.05-1.12,1.05-1.12c0,0-.1.18,1.05-.62l1.15-.79s1.5-.53,1.76-.71,0-.79.79-.79h.79c1.06,0,1.02-.79,1.21-1.32s1.43-.53,1.43-.53l1.06.62.97-2.03-1.85-2.82-1.94-.79Z"/><path d="M190.22,168.84l3.93-.71s2.29-1.24,2.56-1.59,3.09-3.44,3.09-3.44l1.34-3.44v-2.29l-.99-3.69,3.97,3.6-1.59.88-.71,2.12-2.3,4.24-1.85,1.94-1.06,1.76-.26.62-2.79,2.99-3.35-2.99Z"/><path d="M337.66,138.23l2.65-3.52,1.59-1.68c1.68-.88,2.47-1.24,2.82-1.5s.88-.53.88-.53c0,0-1.81-1.36-2.03-5.03-.29-4.83-1.02-19.16-1.02-19.16l-.85,4.64c-.54,2.92-.81,5.89-.8,8.86,0,1.16,0,2.21-.02,2.66-.04,1.24.15.73,0,1.77-.44,2.98-.57,6-.57,6l-.09,1.59s-.53,1.06-.53,1.32v.26c-.71.44-.95,1.08-.95,1.08,0,0,.32-.11-.73-.2s-1.06,2.03-1.06,2.03l.71,1.41Z"/><path d="M337.65,139.58l-1.49,3.46c-.19.45-.5.83-.8,1.21-.71.88-1.17,1.65-1.52,1.77-.53.18-.25.22-1.4,1.45s-.62.57-1.59,1.45-.98.42-2.04.87-.97.53-1.94.88-1.06.35-2.12.53-1.06-.53-1.76,0-2.29.95-2.29.95c0,0,.26-.37-.44,0s-1.06.55-1.06.55l4.63,1.94c1.57.65,3.29,2.66,4.41,1.38.14-.16.32-2.67.36-2.74.27-.61.98-1.83,1.24-2.01.18-.12,1-1.05,1.51-1.64.3-.34.65-.64,1.04-.87.51-.3,1.18-.69,1.45-.8.44-.18.97-1.19.98-1.79,0-.15.2-.17.53-.26.76-.22,1.15-.09,1.59.09l.44.18.62,4.15-.33-10.73Z"/><path d="M331.39,160.4l1.74-.65.62-.36.86-.71,1.01-1.01,1.5-1.59.97-.97h.44l.62,1.15-1.76.53s-.18,1.06-.97.97-5.03,4.5-5.03,4.5v-1.85Z"/><path d="M373.18,154.45l4.34-7.45,1.62-4.57v-4.62c0-1.16,0,1.16,0-1.16s-.46-5.78,0-7.4l.46-1.62s-1.62-2.13,0-1.65-.46.72,1.62.49,2.08,1.85,2.08,1.85l-.69,4.16s-.92,1.62-.92,1.85-.23,1.85-.23,1.85c0,0-.23-2.52,0,2.21.23,4.73.69,3.57.23,4.73s-2.08,0-2.31,3.24c-.23,3.24.09-.84-.23,3.24-.32,4.08-.9,4.85-.9,4.85-.95.7-5.06,0-5.06,0Z"/><path d="M371.75,154.76l1.15-10.04c.08-.74.13-1.48.15-2.22l.04-1.94c.01-.76-.04-1.52-.17-2.26l-.87-4.98c-.2-1.13-.54-2.22-1.03-3.26l-3.4-7.27,2.92,1.83,2.32,6.4c.4,1.09.6,2.24.6,3.4v11.93c0,1.8.68,3.53,1.9,4.85h0v3.26l-3.6.31Z"/><path d="M468.6,81.74l9.63,11.77c1.06,1.29,2.64,2.04,4.3,2.04h0c1.05,0,2.07.3,2.95.87l6.63,1.96c1.1.71-.68,2.94-1.85,3.51l-4.71.96h-3.68c-4.09,0-8.14.82-11.91,2.41l-12.64,5.33,11.29-28.84Z"/><path d="M313.88,154.2c.4-.2.87.09.87.53v1.79s-.14,1.21.28,2.98.21.92.71,2.55,0,.78.78,2.91.85,2.55,1.63,4.04,1.06,2.06,1.56,2.48,1.49,1.84,1.49,1.84h-1.4c-.24,0-.46-.15-.55-.37l-1.29-3.18-2.78-7.42s-.01-.03-.02-.05l-1.44-5.28c-.03-.1-.08-.19-.15-.26l-1.01-1.02c-.28-.29-.21-.77.15-.95l1.17-.6Z"/><path d="M312.47,155.61l1.35,4.54,1.21,4.89,1.33,6.01c.01.06,1.11,1.53,1.11,1.59l-1.09-.44-.68-.17c-.45-.11-.72-.56-.61-1.01l.33-1.38c.03-.13.03-.27,0-.4l-2.87-11.56c-.04-.15-.11-.28-.22-.39l-1.11-1.11,1.28-.57Z"/><path d="M321.74,171.53l1.14-.76c.67-.45,1.2-1.08,1.52-1.83.46-1.06,1.09-2.52,1.22-2.7s.68-1.46,1.05-2.36c.24-.59.35-1.23.31-1.87l-.22-3.34.57,1.17c.45.92.55,1.98.27,2.97l-.17.59c-.03.09-.06.19-.09.28l-.94,2.63s-1.06,2.7-1.49,3.05c-.2.17-.55.61-.88,1.04-.44.59-.73,1.29-.81,2.03h0c-.08.65-.77,1.03-1.36.74h0c-.66-.32-.72-1.24-.11-1.65Z"/><path d="M257.83,170.17l2.37-1.01h.32l.32-.4s.07-.07.22-.29-.18.29.14-.22.5-.65.68-1.04.07.43.29-.79.11-.93.25-1.47l.14-.54s.25-.68.22-1.04,0-1.19,0-1.19l-.04-.18.58.72s-.22.76-.25.9-.33,1.47-.42,1.58c-.06.07-.11.54-.13.86-.02.22-.07.43-.16.64l-.48,1.12-.68,1.47-.07.86.87.16c.43.08.87.03,1.26-.15.49-.23,1.12-.52,1.21-.59.14-.11,1.47-1.08,1.58-1.22s.43-.25.68-.54.86-.9.86-.9l.58-.86.58-.76.32-.36.94.56-1,.48c-.59.28-1.1.68-1.51,1.19h0c-.05.06-.1.11-.15.16l-.91.9-1.07,1.18-.77.86-.28.56-.21.9-2.91-.63s-.08-.02-.12-.03l-3.25-.91Z"/><path d="M263.7,171.68l3.01-2.3s1.65-1.85,1.67-1.87.88-1.61.88-1.61l.2.16-.55.7-.77,1.2-.94.94-.55.66-1.31,1.08-1.12,1.37-.53-.34Z"/><path d="M245.95,160.12l-.28,1.16c-.19.8-.3,1.61-.33,2.43s-.03,1.77.02,2.53c.1,1.48.17,1.07.34,2.03s.24.82.41,1.65,1.41,1.34,1.55,1.54-2.58.48-2.58.48l.48-1.3-.48-4.61-.34-2.02-.45-1.55-1.34-.86,2.99-1.48Z"/><path d="M238.18,155.65l-.86,1.68v.82s.14.82,0,.96,0,0,0,.65-.17.31.14.93l.31.62.17.17s-.03,0,.24.14.03.14.55.24,1.24.28,1.37.33l.14.05h.65l-3.06,2.37s.31-1.37.31-1.48-.62-1.55-.62-1.55l-.55-.86-.17-.93s-.07-.79-.24-.86-.17-.07-.34-.07-.1-.07-.34-.07h-.24l2.54-3.16Z"/><path d="M238.45,162.48l-.97-.65c-.2-.14-.39-.31-.54-.5l-.38-.48c-.28-.36-.59-.69-.93-.99l-.35-.32-.35.8.71.09,2.26,2.37.34.72.48-.17-.27-.86Z"/><path d="M238.27,163.52l-1.08-1.27c-.14-.16-.29-.31-.46-.43l-.89-.69c-.13-.1-.27-.19-.42-.27l-.81-.43v.76l.89.03,1,.79c.16.13.31.27.44.43l.59.71.1.38.25.88.38-.88Z"/><path d="M310.6,122.78l-.66,2.01c-.26.8-.4,1.63-.4,2.47v1.66l.36,2.53c.11.81.3,1.61.56,2.39l.73,2.19,1.92,4.07c.44.93.99,1.82,1.62,2.63l1.63,2.07,3.62,4.59,2.73,2.76-3.53,1.54h-2.81,0c.88-1.89.82-4.09-.16-5.93l-.08-.16-2.35-4.68-1.84-3.34c-.5-.9-.93-1.83-1.31-2.78l-1.26-3.21c-.24-.61-.43-1.25-.58-1.89l-.65-2.92c-.17-.75-.58-1.42-1.18-1.9h0c-.78-.63-1.7-1.06-2.69-1.25l-2.86-.55-1.64-1.81,10.82-.49Z"/><path d="M259.03,153.68l3.93-2.49s2.52-3.52,2.82-3.6,4.3-8.68,4.3-8.68c0,0,1.93-5.49,2-5.86s1.41-4.75,1.41-5.27v-3.49l2.89.74s-1.63,1.11-1.85,1.63-1.63,7.2-1.71,7.42-1.85,3.43-1.85,3.43c0,0-2.23,5.7-2.3,6s-2.75,4.75-2.75,4.75l-1.56,4.38,4.6,1.04-6.64-.53-3.3.53Z"/><polygon points="268.32 153.01 272.11 151.19 277.52 147.59 278.58 146.38 280.12 144.62 282.63 141.88 285.31 138.99 288.39 134.29 286.74 138.23 284.35 140.69 281.6 144.03 276.63 149.3 271.44 152.15 270.92 153.68 268.32 153.01"/><polygon points="281.62 143.45 282.99 142.68 284.23 142.61 284.73 142.78 284.98 143.45 284.73 143.98 284.57 143.3 284.18 142.83 283.3 142.78 282.47 143.23 281.69 143.74 281.62 143.45"/><polygon points="282.71 142.27 283.62 141.84 284.51 141.76 284.81 141.76 285.14 142.01 285.55 141.36 285.21 140.8 284.76 140.8 283.77 141.19 282.71 142.27"/><path d="M414.41,152.36l1.7-5.36,1.88-4.26s2.25-4.26,2.75-4.88,2.04-8.51,2.04-8.51l.45-8.99,4.27,5.73-1.7,1.93c-.78.88-1.39,1.89-1.82,2.99l-1.2,3.1-1.82,4.84-.71,1.92c-.83,2.23-1.11,4.62-.83,6.98l.08.67.5,5.76-5.59-1.9Z"/><path d="M415.94,162.13l5.62-1.13,6.9-3.63,14.4-10.52,14.4-10.27,12.65-11.65,12.27-9.64,7.37-5.92c.67-.54,1.31-1.12,1.9-1.74,1.69-1.78,2.77-4.05,3.19-6.47l1.17-6.65,7.41,16.01-3.31.62c-2.77.52-5.43,1.54-7.83,3.01l-19.92,12.15-7.39,6.45-9.52,7.15-12.15,8.44-14.28,9.64-7.73,6.01-3.29,3.26-.5,3.01-1.38-8.14Z"/><path d="M381.83,133.39l1.01,5.23c.03.15.03.16.04.18l1.87,5.13.21.57c.44,1.21,1.11,2.33,1.97,3.29l1.95,2.19.22.2,3.59,2.73c.18.15-.62.06-.81.19l-2,1.38c-.83.57-1.98.22-2.35-.72l-.66-1.68-4.02-11.54c-.45-1.29-2.23-1.42-2.86-.21h0s1.17-6.82,1.17-6.82c.07-.39.62-.39.67-.13Z"/><path d="M396.39,152.97l6.71-10.69c.03-.05.06-.11.09-.17l3.45-7.76s.02-.05.03-.07l2.58-6.87c.03-.07.05-.15.06-.22l1.08-5.65c.02-.08.02-.17.02-.25v-6.57c0-.5.28-.96.72-1.2h0c1.06-.56,2.27.43,1.93,1.58l-1.65,5.66-2.87,10.82s-.01.05-.02.08l-2.59,7.83c-.02.06-.04.12-.07.18-.33.66-2.46,4.94-2.46,5.29,0,.32-.46,4.66-.59,5.92-.02.23.01.45.1.66l.54,1.28c.41.99-.43,2.05-1.49,1.86l-5.57-.99v-.72Z"/><path d="M393.7,155.08l-1.81,4.85c-.07.18-.17.34-.31.48l-2.99,2.85c-.05.05-.11.1-.18.14l-1.78,1.17c-.55.36-.73,1.09-.42,1.67h0c.44.81,1.57.89,2.13.15l1.51-2.01,3.27-4.48s.07-.09.11-.14l3.49-3.6c.05-.06.11-.11.18-.15l1.89-1.35-3.76-.4c-.58-.06-1.12.27-1.32.82Z"/><path d="M387.28,168.81c-.27-.42-.18-.98.22-1.29l4.4-3.5,4.93-4.03c.12-.1.22-.23.28-.37l1.39-3.22s.03-.08.04-.12l.32-1.14c.19-.68,1.02-.94,1.57-.49l.43.36c.49.4.47,1.15-.02,1.53l-1.85,1.43c-.07.05-.13.11-.18.18l-2.01,2.64c-.05.06-.1.11-.15.16l-4.6,3.82c-.1.09-.19.19-.25.31l-.59,1.16c-.06.12-.1.26-.1.4l-.04.99c-.01.27.09.54.28.73l.89.91c.05.06.44.76,1.15,1.56l1.6,1.76-2.26.69-4.2-3.1c-.28-.05-.52-.21-.67-.44l-.59-.93Z"/><path d="M444.27,145.97l3.65-5.36,1.58-6.6,1.94-7.83v-4.27l2.31-.73-.97,4.13-2.06,6.56s-1.59,6.54-1.7,6.91,0,1.82,0,1.82l.95,1.31-5.69,4.06Z"/><path d="M460.26,134.76l12.38-4s10.2-4.5,10.92-4.74,13.23-3.64,13.23-3.64l2.58-1.68c2.56-1.66,4.48-4.16,5.43-7.06h0s2.43,5.58,2.43,5.58l-8.37,3.28-7.75,2.79-6.45,1.46-8.37,4.01-14.44,4.97-6.55,4.98-6.44,2.9,11.42-8.85Z"/><path d="M487.19,115.95l3.91-1.19,1.8-.16c1.26-.11,2.52-.11,3.78.01l.38.04c.78.07,1.54.3,2.23.67h0c.77.41,1.45.97,2.01,1.64h0c.47.57.78,1.26.89,1.99l.04.29,2.16-1.78,1.29-3.82-1.01.86c-.9.77-2.6,1.28-3.78,1.13h-.01c-.49-.06-2.8-1.51-2.8-1.51,0,0-.49-.11-1.4-.22s-1.08-.63-1.83-.26-2.64.42-2.64.42l-1.19-1.29-3.83,3.18Z"/><path d="M37.4,46.6h0c2.05,0,3.84,1.04,4.04,2.45.04.28.06.58.06.9,0,1.62,1.42,5.01,2.2,6.75.57,1.27.85,2.66.69,4.03-.04.32-.1.66-.19.99-.5,1.85-1.35.25-3.77,2.72-.56.57-1.25,1-2,1.3l-3.24,1.3c-1.67.67-3.8.44-5.09-.56l-1.21-.94c-.6-.46-.95-1.04-1.02-1.66-.12-1.18-.25-3.13.11-3.89.54-1.12-2.1-2.98-.24-4.85,1.32-1.32,4.42-5.08,6.11-7.15.72-.88,2.07-1.42,3.54-1.42Z"/><path d="M55.4,64.59s2.72-.21,3.56,0,1.85-.93,3.76.21c5.93,3.54,4.18,4.6,4.6,7.32s.42.84.42,4.39.62,3.23-1.25,5.44c-4.51,5.3-1.82,0-6.27,6.06-10.64,14.47-10.05,5.3-14.64,6.18-2.84.54-4.53-1.91-4.39-5.13.33-7.94-.63-11.08.84-12.13s1.72-1.57,4.6-4.39c5.66-5.52,4.81-6.27,4.81-6.27,0,0,.63-1.25,2.3-1.46l1.67-.21Z"/><path d="M1.28,52.7c.22-.4.61-.67,1.07-.74.24-.04.52-.07.83-.1.93-.08,2.12-.08,3.18.23,2.09.63,3.35.63,3.56,2.3s2.3,1.46,0,2.72-3.27,1.25-4.14,1.46-5.27-1.25-5.48-2.3-.42-.21-.21-1.05c.14-.56.79-1.79,1.2-2.53Z"/><path d="M528.08,39.49h0c1.26,0,2.49.41,3.51,1.16,1.67,1.23,4.01,3.11,4.01,4.02v7.53c0,6.61-4.95,7.63-8.43,7.54-1.32-.04-2.57-.57-3.59-1.41-.52-.42-1.44-1.03-3.03-1.9-5.18-2.82-6.12-1.36-5.18-7.03.94-5.67.81-2.89.94-5.67.15-3.15,7.15-2.61,9.15-3.61.82-.41,1.72-.62,2.63-.62Z"/><path d="M508.05,69.24c.14-.13.26-.27.36-.45.98-1.64,6.45-10.35,10.46-6.94,4.42,3.76,5.31,8.01,7.96,7.2s3.21-.28,4.03,1.92l.47.73c1.97,2.86,2.1,4.7,2.16,6.76.05,1.44-.12,2.89-.48,4.28l-.87,3.33c0,.99-1.72,5.51-2.34,5.86-2.65,1.54-8.61,2.14-13.59,5.32l-5.25,3.35c-.57.37-1.24.2-1.7-.42l-2.87-3.84c-5.68-7.58-4.85-21.19,1.66-27.11h0Z"/><path d="M561.54,43.06c.42-1.11,1.39-1.91,2.55-2.12,1.38-.25,3.01-.37,3.01.44,0,.9.95,3.31,1.64,4.95.39.92.31,1.95-.11,2.86-.96,2.07-.21,1.2-2,2.07-3.81,1.86-2.31-.47-4.45-2.35l-.39-.34c-1.05-.93-1.42-2.41-.93-3.72l.68-1.78Z"/><path d="M17.94,78.33l3.34-.68s.1-.01.15,0l4.85.39c.26.02.46.23.48.49l.17,2.61c0,.14.08.28.2.37,1.95,1.48,3.32.65,2.86,2.15-.11.37-.29,3.01-4.67,1.95-11.33-2.74-9.85,2.44-13.59-1.95l.09-.75,5.92-4.47c.06-.05.13-.08.21-.09Z"/><path d="M551.12,62.88l1.72,1.32c.69.53.97,1.45.69,2.28l-2.44,7.22c-.43,1.27-1.95,1.79-3.07,1.05l-3.46-2.3c-.57-.38-.91-1.02-.91-1.7v-4.24c0-.76.42-1.46,1.1-1.81l3.01-1.58c.08-.04.17-.08.26-.11l1.17-.42c.65-.23,1.38-.12,1.94.3Z"/><path d="M320.67,152.72h-6.19c-1.63,0-3.18.72-4.23,1.96l-5.21,6.13c-.85,1-1.32,2.28-1.32,3.6v1.29c0,1.51.61,2.95,1.7,4l4.88,4.72c1.04,1,2.42,1.56,3.86,1.56h6.61c1.44,0,2.82-.56,3.85-1.55l4.91-4.72c1.09-1.05,1.7-2.49,1.7-4v-2.29c0-1.45-.57-2.85-1.58-3.88l-5-5.12c-1.05-1.07-2.48-1.67-3.97-1.67Z"/><path d="M303.32,172.66l4.94,6.42,7.24,1.68c1.3.3,2.66.28,3.94-.07l8.74-2.37,3.46-3.52-1.88,5.39c-.37,1.07-1.19,1.92-2.25,2.34l-8.4,3.31c-1.05.41-2.21.43-3.27.04l-7.63-2.78c-1-.37-1.79-1.17-2.12-2.18l-2.76-8.27Z"/></g></svg>