{
	"asset":{
		"generator":"Khronos glTF Blender I/O v4.4.56",
		"version":"2.0"
	},
	"scene":0,
	"scenes":[
		{
			"name":"Scene",
			"nodes":[
				0
			]
		}
	],
	"nodes":[
		{
			"mesh":0,
			"name":"MeshInstance3D",
			"translation":[
				0,
				0.01622059941291809,
				0
			]
		}
	],
	"materials":[
		{
			"doubleSided":true,
			"name":"Material.005",
			"pbrMetallicRoughness":{
				"baseColorFactor":[
					0.65141761302948,
					1,
					0.5332676768302917,
					1
				],
				"metallicFactor":0,
				"roughnessFactor":0.5
			}
		},
		{
			"doubleSided":true,
			"name":"Material.003",
			"pbrMetallicRoughness":{
				"baseColorFactor":[
					0.48936864733695984,
					0.30393165349960327,
					0.16226327419281006,
					1
				],
				"metallicFactor":0,
				"roughnessFactor":0.5
			}
		}
	],
	"meshes":[
		{
			"name":"Mesh_0.002",
			"primitives":[
				{
					"attributes":{
						"POSITION":0,
						"NORMAL":1,
						"TEXCOORD_0":2
					},
					"indices":3,
					"material":0
				},
				{
					"attributes":{
						"POSITION":4,
						"NORMAL":5,
						"TEXCOORD_0":6
					},
					"indices":7,
					"material":1
				}
			]
		}
	],
	"accessors":[
		{
			"bufferView":0,
			"componentType":5126,
			"count":2210,
			"max":[
				0.19977347552776337,
				0.20000000298023224,
				0.19977347552776337
			],
			"min":[
				-0.19977347552776337,
				-0.20000000298023224,
				-0.19977347552776337
			],
			"type":"VEC3"
		},
		{
			"bufferView":1,
			"componentType":5126,
			"count":2210,
			"type":"VEC3"
		},
		{
			"bufferView":2,
			"componentType":5126,
			"count":2210,
			"type":"VEC2"
		},
		{
			"bufferView":3,
			"componentType":5123,
			"count":12672,
			"type":"SCALAR"
		},
		{
			"bufferView":4,
			"componentType":5126,
			"count":709,
			"max":[
				0.046647533774375916,
				0.2739832401275635,
				0.09335135668516159
			],
			"min":[
				0.00574101135134697,
				0.1595079004764557,
				-0.0345122404396534
			],
			"type":"VEC3"
		},
		{
			"bufferView":5,
			"componentType":5126,
			"count":709,
			"type":"VEC3"
		},
		{
			"bufferView":6,
			"componentType":5126,
			"count":709,
			"type":"VEC2"
		},
		{
			"bufferView":7,
			"componentType":5123,
			"count":2472,
			"type":"SCALAR"
		}
	],
	"bufferViews":[
		{
			"buffer":0,
			"byteLength":26520,
			"byteOffset":0,
			"target":34962
		},
		{
			"buffer":0,
			"byteLength":26520,
			"byteOffset":26520,
			"target":34962
		},
		{
			"buffer":0,
			"byteLength":17680,
			"byteOffset":53040,
			"target":34962
		},
		{
			"buffer":0,
			"byteLength":25344,
			"byteOffset":70720,
			"target":34963
		},
		{
			"buffer":0,
			"byteLength":8508,
			"byteOffset":96064,
			"target":34962
		},
		{
			"buffer":0,
			"byteLength":8508,
			"byteOffset":104572,
			"target":34962
		},
		{
			"buffer":0,
			"byteLength":5672,
			"byteOffset":113080,
			"target":34962
		},
		{
			"buffer":0,
			"byteLength":4944,
			"byteOffset":118752,
			"target":34963
		}
	],
	"buffers":[
		{
			"byteLength":123696,
			"uri":"prefab-food.bin"
		}
	]
}
