{
	"asset":{
		"generator":"Khronos glTF Blender I/O v4.4.56",
		"version":"2.0"
	},
	"scene":0,
	"scenes":[
		{
			"name":"Scene",
			"nodes":[
				0
			]
		}
	],
	"nodes":[
		{
			"mesh":0,
			"name":"MeshInstance3D.003",
			"translation":[
				0,
				0.1581227332353592,
				0
			]
		}
	],
	"materials":[
		{
			"doubleSided":true,
			"name":"Material.006",
			"pbrMetallicRoughness":{
				"baseColorFactor":[
					0.3558850884437561,
					0.034730516374111176,
					0.8000626564025879,
					1
				],
				"metallicFactor":0,
				"roughnessFactor":0.5
			}
		},
		{
			"doubleSided":true,
			"name":"Material.003",
			"pbrMetallicRoughness":{
				"baseColorFactor":[
					0.48936864733695984,
					0.30393165349960327,
					0.16226327419281006,
					1
				],
				"metallicFactor":0,
				"roughnessFactor":0.5
			}
		}
	],
	"meshes":[
		{
			"name":"Mesh_0.007",
			"primitives":[
				{
					"attributes":{
						"POSITION":0,
						"NORMAL":1,
						"TEXCOORD_0":2
					},
					"indices":3,
					"material":0
				},
				{
					"attributes":{
						"POSITION":4,
						"NORMAL":5,
						"TEXCOORD_0":6
					},
					"indices":7,
					"material":1
				}
			]
		}
	],
	"accessors":[
		{
			"bufferView":0,
			"componentType":5126,
			"count":253,
			"max":[
				0.13882118463516235,
				0.1509471982717514,
				0.1311665177345276
			],
			"min":[
				-0.12679293751716614,
				-0.16532844305038452,
				-0.13594265282154083
			],
			"type":"VEC3"
		},
		{
			"bufferView":1,
			"componentType":5126,
			"count":253,
			"type":"VEC3"
		},
		{
			"bufferView":2,
			"componentType":5126,
			"count":253,
			"type":"VEC2"
		},
		{
			"bufferView":3,
			"componentType":5123,
			"count":1506,
			"type":"SCALAR"
		},
		{
			"bufferView":4,
			"componentType":5126,
			"count":647,
			"max":[
				0.011981949210166931,
				0.22745536267757416,
				0.0934191420674324
			],
			"min":[
				-0.028924573212862015,
				0.11298002302646637,
				-0.034444451332092285
			],
			"type":"VEC3"
		},
		{
			"bufferView":5,
			"componentType":5126,
			"count":647,
			"type":"VEC3"
		},
		{
			"bufferView":6,
			"componentType":5126,
			"count":647,
			"type":"VEC2"
		},
		{
			"bufferView":7,
			"componentType":5123,
			"count":2472,
			"type":"SCALAR"
		}
	],
	"bufferViews":[
		{
			"buffer":0,
			"byteLength":3036,
			"byteOffset":0,
			"target":34962
		},
		{
			"buffer":0,
			"byteLength":3036,
			"byteOffset":3036,
			"target":34962
		},
		{
			"buffer":0,
			"byteLength":2024,
			"byteOffset":6072,
			"target":34962
		},
		{
			"buffer":0,
			"byteLength":3012,
			"byteOffset":8096,
			"target":34963
		},
		{
			"buffer":0,
			"byteLength":7764,
			"byteOffset":11108,
			"target":34962
		},
		{
			"buffer":0,
			"byteLength":7764,
			"byteOffset":18872,
			"target":34962
		},
		{
			"buffer":0,
			"byteLength":5176,
			"byteOffset":26636,
			"target":34962
		},
		{
			"buffer":0,
			"byteLength":4944,
			"byteOffset":31812,
			"target":34963
		}
	],
	"buffers":[
		{
			"byteLength":36756,
			"uri":"prefab-food.bin"
		}
	]
}
