{
	"asset":{
		"generator":"Khronos glTF Blender I/O v4.3.47",
		"version":"2.0"
	},
	"scene":0,
	"scenes":[
		{
			"name":"Scene",
			"nodes":[
				0,
				1
			]
		}
	],
	"nodes":[
		{
			"mesh":0,
			"name":"lizard"
		},
		{
			"mesh":1,
			"name":"cape"
		}
	],
	"materials":[
		{
			"doubleSided":true,
			"name":"standardSurface1",
			"pbrMetallicRoughness":{
				"metallicFactor":0,
				"roughnessFactor":0.5527864098548889
			}
		},
		{
			"doubleSided":true,
			"name":"LizardClothi_MAT.001",
			"pbrMetallicRoughness":{
				"metallicFactor":0,
				"roughnessFactor":0.5527864098548889
			}
		}
	],
	"meshes":[
		{
			"name":"Mesh.001",
			"primitives":[
				{
					"attributes":{
						"POSITION":0,
						"NORMAL":1,
						"TEXCOORD_0":2
					},
					"indices":3,
					"material":0
				}
			]
		},
		{
			"name":"Mesh.002",
			"primitives":[
				{
					"attributes":{
						"POSITION":4,
						"NORMAL":5,
						"TEXCOORD_0":6
					},
					"indices":7,
					"material":1
				}
			]
		}
	],
	"accessors":[
		{
			"bufferView":0,
			"componentType":5126,
			"count":3835,
			"max":[
				0.4676015079021454,
				1.2004523277282715,
				0.2844829559326172
			],
			"min":[
				-0.453589528799057,
				-0.0021913915406912565,
				-0.717604398727417
			],
			"type":"VEC3"
		},
		{
			"bufferView":1,
			"componentType":5126,
			"count":3835,
			"type":"VEC3"
		},
		{
			"bufferView":2,
			"componentType":5126,
			"count":3835,
			"type":"VEC2"
		},
		{
			"bufferView":3,
			"componentType":5123,
			"count":19080,
			"type":"SCALAR"
		},
		{
			"bufferView":4,
			"componentType":5126,
			"count":527,
			"max":[
				0.3211336135864258,
				0.9132509827613831,
				0.10965299606323242
			],
			"min":[
				-0.22823524475097656,
				0.17239657044410706,
				-0.3092704713344574
			],
			"type":"VEC3"
		},
		{
			"bufferView":5,
			"componentType":5126,
			"count":527,
			"type":"VEC3"
		},
		{
			"bufferView":6,
			"componentType":5126,
			"count":527,
			"type":"VEC2"
		},
		{
			"bufferView":7,
			"componentType":5123,
			"count":2604,
			"type":"SCALAR"
		}
	],
	"bufferViews":[
		{
			"buffer":0,
			"byteLength":46020,
			"byteOffset":0,
			"target":34962
		},
		{
			"buffer":0,
			"byteLength":46020,
			"byteOffset":46020,
			"target":34962
		},
		{
			"buffer":0,
			"byteLength":30680,
			"byteOffset":92040,
			"target":34962
		},
		{
			"buffer":0,
			"byteLength":38160,
			"byteOffset":122720,
			"target":34963
		},
		{
			"buffer":0,
			"byteLength":6324,
			"byteOffset":160880,
			"target":34962
		},
		{
			"buffer":0,
			"byteLength":6324,
			"byteOffset":167204,
			"target":34962
		},
		{
			"buffer":0,
			"byteLength":4216,
			"byteOffset":173528,
			"target":34962
		},
		{
			"buffer":0,
			"byteLength":5208,
			"byteOffset":177744,
			"target":34963
		}
	],
	"buffers":[
		{
			"byteLength":182952,
			"uri":"mage.bin"
		}
	]
}
